<svg width="560" height="666" viewBox="0 0 560 666" fill="none" xmlns="http://www.w3.org/2000/svg">
<g clip-path="url(#clip0)">
<path d="M277.16 390.29C270.1 390.29 263.51 386.49 259.98 380.38C257.33 375.79 256.63 370.45 258 365.34C258.23 364.5 258.54 363.62 258.99 362.58L260.33 359.47L173.83 209.64L168.55 211.51C159.98 214.55 151.03 216.09 141.94 216.09C137.64 216.09 133.24 215.73 128.87 215C105.32 211.1 84.8999 196.94 72.8499 176.15C65.8399 164.05 62.1299 150.26 62.1299 136.27C62.1299 92.26 97.9399 56.46 141.94 56.46H344.01C339.41 60.41 335.13 64.78 331.23 69.5L327.03 74.59H194.49L203.57 85.6C207.68 90.59 211.16 96.06 213.94 101.89H193.12C181.73 85.01 162.27 74.59 141.95 74.59C107.94 74.59 80.2699 102.26 80.2699 136.27C80.2699 170.28 107.94 197.96 141.95 197.96C162.27 197.96 181.73 187.54 193.12 170.65H213.94C211.16 176.49 207.68 181.95 203.57 186.94C200.67 190.46 197.37 193.81 193.77 196.89L189.52 200.52L276.04 350.38L279.41 350.77C285.63 351.49 291.21 355.14 294.33 360.54C296.98 365.13 297.68 370.47 296.31 375.58C294.94 380.7 291.66 384.97 287.07 387.62C284.05 389.37 280.62 390.29 277.16 390.29Z" fill="#5344F4"/>
<path d="M277.22 450.3C248.76 450.3 222.25 435 208.03 410.38L107.03 235.45C112.77 237.46 118.7 238.98 124.74 239.98L131.2 241.05L197.45 355.8L202.45 342.44C204.72 336.38 207.71 330.63 211.37 325.31L221.78 343.34C212.85 361.64 213.56 383.71 223.72 401.31C234.71 420.34 255.2 432.17 277.21 432.17C287.97 432.17 298.61 429.31 307.98 423.89C317.39 418.46 325.2 410.65 330.57 401.31L334.15 395.09L333.78 394.91C334.97 392.15 335.95 389.31 336.72 386.44C340.98 370.53 338.8 353.9 330.56 339.63C320.38 322 301.62 310.35 281.31 308.93L270.9 290.9C272.97 290.73 275.04 290.65 277.08 290.65C281.4 290.65 285.91 291.05 290.5 291.84C295.07 292.63 299.52 293.79 303.73 295.28L309.01 297.15L395.54 147.26L394.2 144.15C391.68 138.31 392.04 131.82 395.18 126.37C398.71 120.25 405.29 116.45 412.35 116.45C415.82 116.45 419.24 117.37 422.25 119.11C431.72 124.58 434.97 136.72 429.51 146.19C426.39 151.59 420.81 155.24 414.59 155.96L411.23 156.35L324.71 306.2L328.97 309.84C335.94 315.77 341.75 322.74 346.26 330.55L346.48 330.93C348.53 334.51 350.34 338.38 351.86 342.41C357.77 358.03 358.59 374.87 354.24 391.11C352.63 397.12 350.32 402.93 347.39 408.4L346.26 410.35C339.29 422.47 329.19 432.57 317.06 439.58C304.93 446.59 291.15 450.3 277.22 450.3Z" fill="#5344F4"/>
<path d="M380.51 351.07C379.38 345.1 377.72 339.21 375.55 333.47L373.25 327.38L439.52 212.6L425.44 214.96C420.92 215.72 416.5 216.11 412.3 216.11C410.26 216.11 408.2 216.02 406.12 215.86L416.53 197.82C436.84 196.4 455.61 184.75 465.79 167.12C482.79 137.67 472.66 99.87 443.21 82.86C433.83 77.45 423.19 74.58 412.44 74.58L411.94 74.6C390.18 74.76 369.85 86.58 358.96 105.44C348.8 123.04 348.1 145.11 357.02 163.41L346.61 181.44C342.9 176.04 339.87 170.2 337.59 164.04C336.04 159.84 334.82 155.4 333.97 150.84L332.94 145.34H159.85L157.83 148.06C154.03 153.17 148.23 156.1 141.94 156.1C131.01 156.1 122.12 147.21 122.12 136.28C122.12 125.35 131.01 116.46 141.94 116.46C148.24 116.46 154.03 119.39 157.83 124.5L159.85 127.21H332.87L333.89 121.7C335.49 113.05 338.49 104.77 342.81 97.1L342.86 97.05L343.13 96.58L343.34 96.16L344.13 94.89V94.84C346.05 91.7 348.28 88.59 350.75 85.6C365.94 67.18 388.29 56.55 412.07 56.45C412.09 56.45 412.12 56.45 412.14 56.45C426.4 56.45 440.15 60.15 452.26 67.14C490.3 89.1 503.44 137.95 481.55 176.04L380.51 351.07Z" fill="#5344F4"/>
<path d="M277.14 239.35C288.004 239.35 296.81 230.543 296.81 219.68C296.81 208.817 288.004 200.01 277.14 200.01C266.277 200.01 257.47 208.817 257.47 219.68C257.47 230.543 266.277 239.35 277.14 239.35Z" fill="#FF8600"/>
<path d="M113.92 497.71C114.85 497.8 115.41 498.36 115.41 499.29V503.66C115.41 504.59 114.95 505.05 114.02 505.05H96.6301C80.5501 505.05 77.7601 511.18 77.7601 532.47C77.7601 553.66 80.5501 559.79 96.6301 559.79H114.01C114.94 559.79 115.4 560.26 115.4 561.18V565.55C115.4 566.48 114.84 567.04 113.91 567.22C109.26 567.87 102.67 568.06 96.6201 568.06C73.9401 568.06 68.3701 559.97 68.3701 532.47C68.3701 504.96 73.9501 496.78 96.6201 496.78C102.68 496.78 109.27 497.06 113.92 497.71Z" fill="#5344F4"/>
<path d="M132.69 497.34C133.62 497.34 134.08 497.8 134.08 498.73V516.76C138.63 516.29 143.19 516.29 145.88 516.29C162.52 516.29 167.44 518.34 167.44 538.04V566.2C167.44 567.13 166.97 567.59 166.05 567.59H159.92C158.99 567.59 158.53 567.12 158.53 566.2V538.78C158.53 524.56 155.74 524 146.82 524H134.09V566.19C134.09 567.12 133.63 567.58 132.7 567.58H126.57C125.64 567.58 125.18 567.11 125.18 566.19V498.72C125.18 497.79 125.65 497.33 126.57 497.33H132.69V497.34Z" fill="#5344F4"/>
<path d="M217.06 530.89V563.42C217.06 564.26 217.06 565.37 215.29 566.02C212.04 567.23 203.95 568.06 194.66 568.06C182.39 568.06 176.72 565.55 176.72 553.1C176.72 541.95 182.58 538.79 193.17 538.79L208.13 538.7V532.47C208.13 526.71 204.78 524.11 196.05 524.11H182.11C180.99 524.11 180.72 523.83 180.72 522.72V518.91C180.72 517.8 181.09 517.61 182.02 517.42C187.5 516.49 192.15 516.3 196.05 516.3C210.56 516.3 217.06 520.76 217.06 530.89ZM193.37 545.94C188.26 545.94 185.56 547.61 185.56 552.91C185.56 559.04 188.63 560.44 196.25 560.44C199.13 560.44 204.61 560.25 208.15 559.33V545.95H193.37V545.94Z" fill="#5344F4"/>
<path d="M237.04 516.76H230.91C229.98 516.76 229.52 517.22 229.52 518.15V566.2C229.52 567.13 229.98 567.59 230.91 567.59H237.04C237.97 567.59 238.43 567.12 238.43 566.2V518.15C238.43 517.23 237.97 516.76 237.04 516.76Z" fill="#5344F4"/>
<path d="M293.45 538.04V566.2C293.45 567.13 292.8 567.59 291.87 567.59H285.92C284.99 567.59 284.53 567.12 284.53 566.2V538.78C284.53 524.56 281.74 524.1 272.82 524.1H260.09V566.2C260.09 567.13 259.63 567.59 258.7 567.59H252.57C251.64 567.59 251.18 567.12 251.18 566.2V519.27C251.18 518.06 251.65 517.97 252.57 517.78C259.82 516.39 267.44 516.29 271.9 516.29C288.52 516.3 293.45 518.34 293.45 538.04Z" fill="#5344F4"/>
<path d="M340.1 517.13C340.94 517.22 341.4 517.78 341.4 518.71V522.71C341.4 523.64 340.94 524.1 340.01 524.1H325.98C314.73 524.1 313.34 527.72 313.34 542.22C313.34 556.62 314.73 560.25 325.98 560.25H340C340.93 560.25 341.39 560.72 341.39 561.64V565.64C341.39 566.57 340.93 567.13 340.09 567.22C335.35 567.87 329.87 568.06 325.96 568.06C307.93 568.06 304.4 562.95 304.4 542.22C304.4 521.49 307.93 516.29 325.96 516.29C329.87 516.3 335.36 516.48 340.1 517.13Z" fill="#5344F4"/>
<path d="M388.23 530.89V563.42C388.23 564.26 388.23 565.37 386.46 566.02C383.21 567.23 375.12 568.06 365.83 568.06C353.56 568.06 347.89 565.55 347.89 553.1C347.89 541.95 353.74 538.79 364.34 538.79L379.3 538.7V532.47C379.3 526.71 375.95 524.11 367.22 524.11H353.28C352.16 524.11 351.89 523.83 351.89 522.72V518.91C351.89 517.8 352.26 517.61 353.19 517.42C358.67 516.49 363.32 516.3 367.22 516.3C381.73 516.3 388.23 520.76 388.23 530.89ZM364.53 545.94C359.42 545.94 356.72 547.61 356.72 552.91C356.72 559.04 359.79 560.44 367.41 560.44C370.29 560.44 375.77 560.25 379.31 559.33V545.95H364.53V545.94Z" fill="#5344F4"/>
<path d="M432.09 517.13C432.93 517.22 433.39 517.78 433.39 518.62V522.62C433.39 523.55 432.92 524.01 432 524.01H414.71C410.43 524.01 407.92 525.5 407.92 528.84V530.05C407.92 532.65 409.13 534.88 413.68 536.56L426.04 541.49C434.59 544.74 435.33 549.48 435.33 554.59V555.61C435.33 566.02 429.1 568.06 416.56 568.06C408.47 568.06 401.13 567.41 399.55 567.22C398.43 567.13 398.16 566.57 398.16 565.83V561.74C398.16 560.81 398.63 560.35 399.55 560.35H416.74C424.17 560.35 426.5 559.51 426.5 555.52V554.4C426.5 551.7 425.38 549.94 421.11 548.17L407.91 543.15C400.75 540.36 398.99 534.97 398.99 529.86V527.91C398.99 517.69 407.91 516.29 417.86 516.29C421.96 516.3 426.7 516.48 432.09 517.13Z" fill="#5344F4"/>
<path d="M485.89 540.83V543.52C485.89 545.38 485.43 546.12 482.54 546.12H452.99C453.27 557.46 455.41 560.25 465.35 560.25H480.59C481.52 560.25 481.98 560.72 481.98 561.64V565.73C481.98 566.57 481.51 567.12 480.68 567.22C475.94 567.87 470.83 568.06 465.16 568.06C447.69 568.06 443.97 562.95 443.97 542.22C443.97 521.49 447.69 516.29 465.16 516.29C481.81 516.3 485.71 521.22 485.89 540.83ZM452.9 538.88H476.97C476.78 527.08 474.83 524.1 465.17 524.1C455.13 524.1 453.09 527.08 452.9 538.88Z" fill="#5344F4"/>
<path d="M81.2001 589.6C81.4001 589.6 81.5002 589.7 81.5002 589.9V591.1C81.5002 591.3 81.4001 591.4 81.2001 591.4H76.6002V604.63C76.6002 604.83 76.5002 604.93 76.3002 604.93H74.8602C74.6602 604.93 74.5602 604.83 74.5602 604.63V591.4H69.9602C69.7602 591.4 69.6602 591.3 69.6602 591.1V589.9C69.6602 589.7 69.7602 589.6 69.9602 589.6H81.2001Z" fill="#FF8600"/>
<path d="M97.5202 589.6C97.7202 589.6 97.8202 589.7 97.8202 589.92V604.64C97.8202 604.84 97.7202 604.94 97.5202 604.94H96.0802C95.8802 604.94 95.7802 604.84 95.7802 604.64V598.05H87.5302V604.64C87.5302 604.84 87.4302 604.94 87.2302 604.94H85.7902C85.5902 604.94 85.4902 604.84 85.4902 604.64V589.92C85.4902 589.7 85.5902 589.6 85.7902 589.6H87.2302C87.4302 589.6 87.5302 589.7 87.5302 589.92V596.25H95.7802V589.92C95.7802 589.7 95.8802 589.6 96.0802 589.6H97.5202Z" fill="#FF8600"/>
<path d="M112.98 589.6C113.18 589.6 113.28 589.7 113.28 589.9V591.1C113.28 591.3 113.18 591.4 112.98 591.4H105.24V596.61H112.29C112.49 596.61 112.59 596.71 112.59 596.91V598.09C112.59 598.29 112.49 598.39 112.29 598.39H105.24V603.13H112.98C113.18 603.13 113.28 603.23 113.28 603.43V604.63C113.28 604.83 113.18 604.93 112.98 604.93H103.49C103.29 604.93 103.19 604.83 103.19 604.63V589.9C103.19 589.7 103.29 589.6 103.49 589.6H112.98V589.6Z" fill="#FF8600"/>
<path d="M134.38 589.6C134.58 589.6 134.68 589.7 134.68 589.9V591.1C134.68 591.3 134.58 591.4 134.38 591.4H126.64V596.61H133.69C133.89 596.61 133.99 596.71 133.99 596.91V598.09C133.99 598.29 133.89 598.39 133.69 598.39H126.64V603.13H134.38C134.58 603.13 134.68 603.23 134.68 603.43V604.63C134.68 604.83 134.58 604.93 134.38 604.93H124.89C124.69 604.93 124.59 604.83 124.59 604.63V589.9C124.59 589.7 124.69 589.6 124.89 589.6H134.38V589.6Z" fill="#FF8600"/>
<path d="M147.48 591.87L150.95 604.62C150.99 604.88 150.95 604.94 150.71 604.94H149.13C148.97 604.94 148.93 604.88 148.87 604.62L147.61 600.14H141.51L140.23 604.62C140.17 604.88 140.15 604.94 139.97 604.94H138.39C138.15 604.94 138.11 604.88 138.15 604.62L141.74 591.87C142.33 589.78 142.67 589.5 144.56 589.5C146.63 589.5 146.91 589.79 147.48 591.87ZM143.67 592.36L142.01 598.36H147.14L145.56 592.36C145.3 591.43 145.26 591.29 144.55 591.29C143.95 591.29 143.91 591.43 143.67 592.36Z" fill="#FF8600"/>
<path d="M163.84 589.81C164.04 589.83 164.12 589.91 164.12 590.07V591C164.12 591.2 164.04 591.3 163.86 591.3H159.3C157.52 591.3 156.64 591.85 156.64 593.1V593.44C156.64 594.45 156.92 595 158.16 595.51L162.58 597.33C164.45 598.1 164.91 599.26 164.91 600.86V601.51C164.91 604.59 162.44 605.04 159.56 605.04C157.92 605.04 156.32 604.96 154.62 604.76C154.44 604.72 154.38 604.64 154.38 604.43V603.52C154.38 603.34 154.48 603.24 154.66 603.24H160.21C161.99 603.24 162.85 602.73 162.85 601.46V601.08C162.85 600.05 162.57 599.4 161.31 598.89L156.51 596.94C154.93 596.33 154.6 595.04 154.6 593.49V593C154.6 589.92 157.01 589.49 159.91 589.49C161.59 589.5 162.2 589.6 163.84 589.81Z" fill="#FF8600"/>
<path d="M180.55 589.6C180.83 589.6 180.96 589.72 180.77 590.05L175.28 600.29V604.65C175.28 604.85 175.18 604.95 174.98 604.95H173.52C173.32 604.95 173.22 604.85 173.22 604.65V600.29L167.73 590.05C167.55 589.72 167.67 589.6 167.95 589.6H169.53C169.83 589.6 169.94 589.7 170.08 589.92L174.26 598.05L178.46 589.92C178.56 589.7 178.7 589.6 179.01 589.6H180.55Z" fill="#FF8600"/>
<path d="M186.6 602.54C186.72 602.54 186.8 602.6 186.8 602.74V603.02C186.8 603.14 186.74 603.22 186.7 603.28L183.92 607.92C183.84 608.04 183.76 608.08 183.64 608.02L183.17 607.78C183.07 607.72 183.07 607.6 183.11 607.5L184.51 602.72C184.55 602.6 184.59 602.54 184.77 602.54H186.6V602.54Z" fill="#FF8600"/>
<path d="M208.88 594.45C208.88 598.71 207.36 599.21 202.8 599.21H200.23V604.64C200.23 604.88 200.17 604.94 199.93 604.94H198.49C198.25 604.94 198.19 604.88 198.19 604.64V589.95C198.19 589.71 198.25 589.67 198.49 589.65C199.93 589.55 201.67 589.51 202.81 589.51C207.37 589.5 208.88 590.27 208.88 594.45ZM200.23 591.31V597.47H202.62C205.97 597.47 206.82 597.33 206.82 594.49C206.82 591.69 205.97 591.31 202.62 591.31H200.23Z" fill="#FF8600"/>
<path d="M224.05 594.45C224.05 597.69 223.16 598.77 220.73 599.09L224.15 604.54C224.31 604.76 224.21 604.94 223.91 604.94H222.61C222.14 604.94 222 604.8 221.8 604.49L218.45 599.2H215.39V604.63C215.39 604.87 215.33 604.93 215.09 604.93H213.65C213.41 604.93 213.35 604.87 213.35 604.63V589.94C213.35 589.7 213.41 589.66 213.65 589.64C215.09 589.54 216.83 589.5 217.97 589.5C222.54 589.5 224.05 590.27 224.05 594.45ZM215.4 591.31V597.47H217.79C221.14 597.47 221.99 597.33 221.99 594.49C221.99 591.69 221.14 591.31 217.79 591.31H215.4Z" fill="#FF8600"/>
<path d="M230.53 589.6C230.73 589.6 230.83 589.7 230.83 589.92V604.64C230.83 604.84 230.73 604.94 230.53 604.94H229.09C228.89 604.94 228.79 604.84 228.79 604.64V589.92C228.79 589.7 228.89 589.6 229.09 589.6H230.53Z" fill="#FF8600"/>
<path d="M236.88 589.6C237.04 589.6 237.06 589.68 237.14 589.92L240.5 602.18C240.76 603.11 240.83 603.27 241.25 603.27C241.8 603.27 241.88 603.11 242.12 602.18L245.34 589.92C245.4 589.68 245.44 589.6 245.6 589.6H247.18C247.42 589.6 247.48 589.68 247.44 589.92L244.06 602.67C243.51 604.76 243.33 605.04 241.24 605.04C239.35 605.04 239.13 604.76 238.56 602.67L235.01 589.92C234.97 589.68 235.03 589.6 235.27 589.6H236.88Z" fill="#FF8600"/>
<path d="M259.14 591.87L262.61 604.62C262.65 604.88 262.61 604.94 262.37 604.94H260.79C260.63 604.94 260.59 604.88 260.53 604.62L259.27 600.14H253.17L251.89 604.62C251.83 604.88 251.81 604.94 251.63 604.94H250.05C249.81 604.94 249.77 604.88 249.81 604.62L253.4 591.87C253.99 589.78 254.33 589.5 256.22 589.5C258.29 589.5 258.57 589.79 259.14 591.87ZM255.33 592.36L253.67 598.36H258.8L257.22 592.36C256.96 591.43 256.92 591.29 256.21 591.29C255.61 591.29 255.57 591.43 255.33 592.36Z" fill="#FF8600"/>
<path d="M275.53 589.6C275.73 589.6 275.83 589.7 275.83 589.9V591.1C275.83 591.3 275.73 591.4 275.53 591.4H270.93V604.63C270.93 604.83 270.83 604.93 270.63 604.93H269.19C268.99 604.93 268.89 604.83 268.89 604.63V591.4H264.29C264.09 591.4 263.99 591.3 263.99 591.1V589.9C263.99 589.7 264.09 589.6 264.29 589.6H275.53Z" fill="#FF8600"/>
<path d="M289.6 589.6C289.8 589.6 289.9 589.7 289.9 589.9V591.1C289.9 591.3 289.8 591.4 289.6 591.4H281.86V596.61H288.91C289.11 596.61 289.21 596.71 289.21 596.91V598.09C289.21 598.29 289.11 598.39 288.91 598.39H281.86V603.13H289.6C289.8 603.13 289.9 603.23 289.9 603.43V604.63C289.9 604.83 289.8 604.93 289.6 604.93H280.12C279.92 604.93 279.82 604.83 279.82 604.63V589.9C279.82 589.7 279.92 589.6 280.12 589.6H289.6V589.6Z" fill="#FF8600"/>
<path d="M320.28 589.6C320.52 589.6 320.58 589.68 320.54 589.92L317.78 602.67C317.33 604.76 317.01 605.04 315.15 605.04C313.06 605.04 312.86 604.76 312.35 602.67L310.16 593.49L307.97 602.67C307.44 604.76 307.26 605.04 305.15 605.04C303.31 605.04 302.96 604.76 302.52 602.67L299.78 589.92C299.74 589.68 299.78 589.6 300.02 589.6H301.62C301.78 589.6 301.82 589.68 301.88 589.92L304.45 602.08C304.65 603.01 304.79 603.15 305.2 603.15C305.75 603.15 305.85 603.01 306.07 602.08L308.97 590.55C309.03 590.29 309.17 590.22 309.33 590.22H310.95C311.11 590.22 311.23 590.28 311.29 590.55L314.19 602.08C314.43 603.01 314.51 603.15 315.06 603.15C315.49 603.15 315.61 603.01 315.81 602.08L318.39 589.92C318.45 589.68 318.49 589.6 318.65 589.6H320.28Z" fill="#FF8600"/>
<path d="M332.52 591.87L335.99 604.62C336.03 604.88 335.99 604.94 335.75 604.94H334.17C334.01 604.94 333.97 604.88 333.91 604.62L332.65 600.14H326.55L325.27 604.62C325.21 604.88 325.19 604.94 325.01 604.94H323.43C323.19 604.94 323.15 604.88 323.19 604.62L326.78 591.87C327.37 589.78 327.71 589.5 329.6 589.5C331.66 589.5 331.95 589.79 332.52 591.87ZM328.71 592.36L327.05 598.36H332.18L330.6 592.36C330.34 591.43 330.3 591.29 329.59 591.29C328.99 591.29 328.95 591.43 328.71 592.36Z" fill="#FF8600"/>
<path d="M350.26 589.6C350.54 589.6 350.66 589.72 350.48 590.05L344.99 600.29V604.65C344.99 604.85 344.89 604.95 344.69 604.95H343.23C343.03 604.95 342.93 604.85 342.93 604.65V600.29L337.44 590.05C337.26 589.72 337.38 589.6 337.66 589.6H339.24C339.54 589.6 339.64 589.7 339.79 589.92L343.97 598.05L348.17 589.92C348.27 589.7 348.41 589.6 348.72 589.6H350.26Z" fill="#FF8600"/>
<path d="M369.99 589.6C370.19 589.6 370.29 589.7 370.29 589.9V591.1C370.29 591.3 370.19 591.4 369.99 591.4H365.39V604.63C365.39 604.83 365.29 604.93 365.09 604.93H363.65C363.45 604.93 363.35 604.83 363.35 604.63V591.4H358.75C358.55 591.4 358.45 591.3 358.45 591.1V589.9C358.45 589.7 358.55 589.6 358.75 589.6H369.99Z" fill="#FF8600"/>
<path d="M385.73 597.31C385.73 603.29 384.5 605.05 379.55 605.05C374.61 605.05 373.37 603.29 373.37 597.31C373.37 591.31 374.61 589.51 379.55 589.51C384.49 589.5 385.73 591.31 385.73 597.31ZM375.43 597.31C375.43 601.93 376.04 603.25 379.54 603.25C383.05 603.25 383.65 601.93 383.65 597.31C383.65 592.67 383.04 591.31 379.54 591.31C376.04 591.31 375.43 592.66 375.43 597.31Z" fill="#FF8600"/>
<path d="M408 593.76C408 595.69 407.49 596.88 406.22 597.19V597.25C407.96 597.55 408.39 599.14 408.39 600.9C408.39 604.33 406.53 605.06 403.34 605.06C402.2 605.06 398.94 605.02 397.5 604.92C397.26 604.9 397.2 604.86 397.2 604.62V589.97C397.2 589.73 397.26 589.69 397.5 589.67C398.94 589.57 401.55 589.53 402.71 589.53C406.16 589.5 408 590.44 408 593.76ZM399.24 591.31V596.48H401.73C404.79 596.48 405.93 596.38 405.93 593.97C405.93 591.74 404.84 591.32 402.52 591.32H399.24V591.31ZM399.24 598.12V603.25H403.37C405.38 603.25 406.33 602.84 406.33 600.82C406.33 598.53 405.17 598.13 403.41 598.13H399.24V598.12Z" fill="#FF8600"/>
<path d="M414.88 589.6C415.08 589.6 415.18 589.7 415.18 589.92V604.64C415.18 604.84 415.08 604.94 414.88 604.94H413.44C413.24 604.94 413.14 604.84 413.14 604.64V589.92C413.14 589.7 413.24 589.6 413.44 589.6H414.88Z" fill="#FF8600"/>
<path d="M430.71 589.6C430.91 589.6 431.01 589.7 431.01 589.9V591.1C431.01 591.3 430.91 591.4 430.71 591.4H426.11V604.63C426.11 604.83 426.01 604.93 425.81 604.93H424.37C424.17 604.93 424.07 604.83 424.07 604.63V591.4H419.47C419.27 591.4 419.17 591.3 419.17 591.1V589.9C419.17 589.7 419.27 589.6 419.47 589.6H430.71Z" fill="#FF8600"/>
<path d="M444.42 589.71C444.62 589.73 444.75 589.85 444.75 590.06V591C444.75 591.2 444.65 591.3 444.45 591.3H440.66C437.15 591.3 436.55 592.64 436.55 597.28C436.55 601.9 437.16 603.24 440.66 603.24H444.45C444.65 603.24 444.75 603.34 444.75 603.54V604.49C444.75 604.69 444.63 604.82 444.42 604.85C443.41 604.99 441.97 605.03 440.65 605.03C435.71 605.03 434.49 603.27 434.49 597.27C434.49 591.27 435.71 589.49 440.65 589.49C441.97 589.5 443.41 589.56 444.42 589.71Z" fill="#FF8600"/>
<path d="M460.83 597.31C460.83 603.29 459.6 605.05 454.65 605.05C449.71 605.05 448.47 603.29 448.47 597.31C448.47 591.31 449.71 589.51 454.65 589.51C459.59 589.5 460.83 591.31 460.83 597.31ZM450.53 597.31C450.53 601.93 451.14 603.25 454.64 603.25C458.15 603.25 458.75 601.93 458.75 597.31C458.75 592.67 458.14 591.31 454.64 591.31C451.14 591.31 450.53 592.66 450.53 597.31Z" fill="#FF8600"/>
<path d="M467.43 589.6C467.63 589.6 467.73 589.7 467.73 589.92V604.64C467.73 604.84 467.63 604.94 467.43 604.94H465.99C465.79 604.94 465.69 604.84 465.69 604.64V589.92C465.69 589.7 465.79 589.6 465.99 589.6H467.43Z" fill="#FF8600"/>
<path d="M485.08 589.6C485.28 589.6 485.38 589.7 485.38 589.92V604.64C485.38 604.84 485.28 604.94 485.08 604.94H483.85C483.55 604.94 483.34 604.88 483.14 604.58L475.14 592.52V604.64C475.14 604.84 475.04 604.94 474.84 604.94H473.4C473.2 604.94 473.1 604.84 473.1 604.64V589.92C473.1 589.7 473.2 589.6 473.4 589.6H474.78C475.51 589.62 475.63 589.72 475.94 590.19L483.36 601.36V589.93C483.36 589.71 483.46 589.61 483.66 589.61H485.08V589.6Z" fill="#FF8600"/>
<path d="M233.97 509.26C237.262 509.26 239.93 506.592 239.93 503.3C239.93 500.008 237.262 497.34 233.97 497.34C230.679 497.34 228.01 500.008 228.01 503.3C228.01 506.592 230.679 509.26 233.97 509.26Z" fill="#FF8600"/>
</g>
<defs>
<clipPath id="clip0">
<rect width="560" height="666" fill="white"/>
</clipPath>
</defs>
</svg>
