<svg width="431" height="395" viewBox="0 0 431 395" fill="none" xmlns="http://www.w3.org/2000/svg">
<path d="M215.16 334.29C208.1 334.29 201.51 330.49 197.98 324.38C195.33 319.79 194.63 314.45 196 309.34C196.23 308.5 196.54 307.62 196.99 306.58L198.33 303.47L111.83 153.64L106.55 155.51C97.9799 158.55 89.0299 160.09 79.9399 160.09C75.6399 160.09 71.2399 159.73 66.8699 159C43.3199 155.1 22.8999 140.94 10.8499 120.15C3.83988 108.05 0.129883 94.26 0.129883 80.27C0.129883 36.26 35.9399 0.460022 79.9399 0.460022H282.01C277.41 4.41002 273.13 8.78002 269.23 13.5L265.03 18.59H132.49L141.57 29.6C145.68 34.59 149.16 40.06 151.94 45.89H131.12C119.73 29.01 100.27 18.59 79.9499 18.59C45.9399 18.59 18.2699 46.26 18.2699 80.27C18.2699 114.28 45.9399 141.96 79.9499 141.96C100.27 141.96 119.73 131.54 131.12 114.65H151.94C149.16 120.49 145.68 125.95 141.57 130.94C138.67 134.46 135.37 137.81 131.77 140.89L127.52 144.52L214.04 294.38L217.41 294.77C223.63 295.49 229.21 299.14 232.33 304.54C234.98 309.13 235.68 314.47 234.31 319.58C232.94 324.7 229.66 328.97 225.07 331.62C222.05 333.37 218.62 334.29 215.16 334.29Z" fill="#5344F4"/>
<path d="M215.22 394.3C186.76 394.3 160.25 379 146.03 354.38L45.0298 179.45C50.7698 181.46 56.6998 182.98 62.7398 183.98L69.1998 185.05L135.45 299.8L140.45 286.44C142.72 280.38 145.71 274.63 149.37 269.31L159.78 287.34C150.85 305.64 151.56 327.71 161.72 345.31C172.71 364.34 193.2 376.17 215.21 376.17C225.97 376.17 236.61 373.31 245.98 367.89C255.39 362.46 263.2 354.65 268.57 345.31L272.15 339.09L271.78 338.91C272.97 336.15 273.95 333.31 274.72 330.44C278.98 314.53 276.8 297.9 268.56 283.63C258.38 266 239.62 254.35 219.31 252.93L208.9 234.9C210.97 234.73 213.04 234.65 215.08 234.65C219.4 234.65 223.91 235.05 228.5 235.84C233.07 236.63 237.52 237.79 241.73 239.28L247.01 241.15L333.54 91.26L332.2 88.15C329.68 82.31 330.04 75.82 333.18 70.37C336.71 64.25 343.29 60.45 350.35 60.45C353.82 60.45 357.24 61.37 360.25 63.11C369.72 68.58 372.97 80.72 367.51 90.19C364.39 95.59 358.81 99.24 352.59 99.96L349.23 100.35L262.71 250.2L266.97 253.84C273.94 259.77 279.75 266.74 284.26 274.55L284.48 274.93C286.53 278.51 288.34 282.38 289.86 286.41C295.77 302.03 296.59 318.87 292.24 335.11C290.63 341.12 288.32 346.93 285.39 352.4L284.26 354.35C277.29 366.47 267.19 376.57 255.06 383.58C242.93 390.59 229.15 394.3 215.22 394.3Z" fill="#5344F4"/>
<path d="M318.51 295.07C317.38 289.1 315.72 283.21 313.55 277.47L311.25 271.38L377.52 156.6L363.44 158.96C358.92 159.72 354.5 160.11 350.3 160.11C348.26 160.11 346.2 160.02 344.12 159.86L354.53 141.82C374.84 140.4 393.61 128.75 403.79 111.12C420.79 81.67 410.66 43.87 381.21 26.86C371.83 21.45 361.19 18.58 350.44 18.58L349.94 18.6C328.18 18.76 307.85 30.58 296.96 49.44C286.8 67.04 286.1 89.11 295.02 107.41L284.61 125.44C280.9 120.04 277.87 114.2 275.59 108.04C274.04 103.84 272.82 99.4 271.97 94.84L270.94 89.34H97.8501L95.8301 92.06C92.0301 97.17 86.2301 100.1 79.9401 100.1C69.0101 100.1 60.1201 91.21 60.1201 80.28C60.1201 69.35 69.0101 60.46 79.9401 60.46C86.2401 60.46 92.0301 63.39 95.8301 68.5L97.8501 71.21H270.87L271.89 65.7C273.49 57.05 276.49 48.77 280.81 41.1L280.86 41.05L281.13 40.58L281.34 40.16L282.13 38.89V38.84C284.05 35.7 286.28 32.59 288.75 29.6C303.94 11.18 326.29 0.550012 350.07 0.450012C350.09 0.450012 350.12 0.450012 350.14 0.450012C364.4 0.450012 378.15 4.15001 390.26 11.14C428.3 33.1 441.44 81.95 419.55 120.04L318.51 295.07Z" fill="#5344F4"/>
<path d="M215.14 183.35C226.004 183.35 234.81 174.543 234.81 163.68C234.81 152.817 226.004 144.01 215.14 144.01C204.277 144.01 195.47 152.817 195.47 163.68C195.47 174.543 204.277 183.35 215.14 183.35Z" fill="#FF8600"/>
</svg>
